<svg xmlns="http://www.w3.org/2000/svg" version="1.1" xmlns:xlink="http://www.w3.org/1999/xlink" xmlns:svgjs="http://svgjs.dev/svgjs" width="1000" height="275" viewBox="0 0 1000 275"><g transform="matrix(1,0,0,1,-0.6060606060606233,-0.19768841876151555)"><svg viewBox="0 0 396 109" data-background-color="#ffffff" preserveAspectRatio="xMidYMid meet" height="275" width="1000" xmlns="http://www.w3.org/2000/svg" xmlns:xlink="http://www.w3.org/1999/xlink"><g id="tight-bounds" transform="matrix(1,0,0,1,0.2400000000000091,0.07835650052729193)"><svg viewBox="0 0 395.52 108.8432869989454" height="108.8432869989454" width="395.52"><g><svg viewBox="0 0 629.3270347952756 173.18472659895195" height="108.8432869989454" width="395.52"><g transform="matrix(1,0,0,1,233.80703479527563,33.07421540115955)"><svg viewBox="0 0 395.52 107.03629579663286" height="107.03629579663286" width="395.52"><g><svg viewBox="0 0 395.52 107.03629579663286" height="107.03629579663286" width="395.52"><g><svg viewBox="0 0 395.52 107.03629579663286" height="107.03629579663286" width="395.52"><g transform="matrix(1,0,0,1,0,0)"><svg width="395.52" viewBox="0.4842174323430534 -38.27037 178.71216256765692 48.36337" height="107.03629579663286" data-palette-color="#755bb4"><path d="M31.711-15.126l3.186 15.016c-0.322 0.539-0.887 1.135-1.695 1.79-0.8 0.661-1.747 1.308-2.839 1.942-1.092 0.634-2.226 1.201-3.4 1.703-1.168 0.5-2.3 0.866-3.396 1.099v0c-2.896 0.614-5.594 0.744-8.096 0.389-2.496-0.363-4.729-1.137-6.697-2.321-1.967-1.177-3.607-2.721-4.919-4.63-1.312-1.909-2.23-4.103-2.756-6.581v0c-0.689-3.248-0.799-6.175-0.33-8.783 0.476-2.609 1.389-4.888 2.741-6.837 1.35-1.956 3.046-3.553 5.086-4.791 2.04-1.244 4.269-2.122 6.689-2.635v0c2.283-0.484 4.426-0.677 6.43-0.578 2.011 0.098 3.753 0.376 5.227 0.834v0l-0.887 6.996c-0.648-0.196-1.489-0.352-2.522-0.467-1.034-0.121-2.073-0.18-3.115-0.177-1.042 0.003-1.951 0.087-2.727 0.252v0c-1.93 0.41-3.585 1.013-4.963 1.809-1.378 0.797-2.47 1.785-3.276 2.965-0.813 1.181-1.324 2.544-1.535 4.087-0.211 1.544-0.115 3.265 0.288 5.163v0c0.356 1.676 0.965 3.121 1.83 4.335 0.863 1.207 1.915 2.17 3.158 2.887 1.248 0.71 2.637 1.154 4.168 1.334 1.537 0.178 3.176 0.083 4.917-0.287v0c0.998-0.212 1.899-0.478 2.703-0.798 0.803-0.327 1.461-0.712 1.974-1.155v0l-0.912-4.295-6.133 1.302-1.434-6.76zM45.573 2.422l-7.021 0.737 12.362-39.264 0.397-0.042 20.23 35.845-8.245 0.865-13.173-25.324 4.781-4.071zM46.751-4.85l1.58-6.219 10.851-1.138 3.124 5.725zM82.656-0.307l-6.91 0.035-0.191-37.81 0.05 0 20.334 28.528-3.063-0.675 19.999-28.041 0.1 0 0.19 37.809-7.159 0.036-0.11-21.669 0.459 3.697-12.202 17.542-0.1 0.001-12.718-17.417 1.213-3.406zM125.113-35.582l10.601 1.121c3.766 0.398 6.678 1.477 8.738 3.236 2.067 1.754 2.942 4.135 2.623 7.145v0c-0.235 2.228-0.979 4.026-2.229 5.396-1.258 1.375-2.864 2.332-4.819 2.869-1.961 0.537-4.154 0.677-6.58 0.421v0l-0.719-3.948c2.977 0.315 5.575 1.005 7.795 2.071 2.221 1.059 3.924 2.419 5.11 4.08 1.178 1.666 1.655 3.564 1.429 5.692v0c-0.207 1.962-0.734 3.586-1.581 4.871-0.846 1.285-1.914 2.281-3.202 2.99-1.281 0.703-2.694 1.163-4.238 1.382-1.545 0.219-3.12 0.243-4.724 0.074v0l-12.023-1.271zM130.671-20.052l4.316 0.456c1.405 0.149 2.492-0.169 3.258-0.952 0.759-0.778 1.196-1.707 1.31-2.788v0c0.131-1.24-0.188-2.215-0.957-2.927-0.769-0.711-1.857-1.142-3.263-1.29v0l-3.828-0.405zM129.114-5.324l4.565 0.483c1.048 0.111 2.01 0.072 2.888-0.117 0.878-0.189 1.595-0.562 2.15-1.121 0.554-0.551 0.88-1.285 0.976-2.199v0c0.111-1.048-0.097-1.874-0.623-2.479-0.533-0.599-1.256-1.055-2.168-1.366-0.912-0.311-1.876-0.52-2.89-0.627v0l-4.068-0.43zM153.609 4.894l-6.918-1.406 23.581-33.74 0.392 0.079 8.532 40.266-8.124-1.651-4.961-28.111 5.783-2.447zM156.916-1.69l3.375-5.457 10.691 2.173 1.261 6.399z" opacity="1" transform="matrix(1,0,0,1,0,0)" fill="#755bb4" class="undefined-text-0" data-fill-palette-color="primary" id="text-0"></path></svg></g></svg></g></svg></g></svg></g><g><svg viewBox="0 0 202.8190123012201 173.18472659895195" height="173.18472659895195" width="202.8190123012201"><g><svg xmlns="http://www.w3.org/2000/svg" xmlns:xlink="http://www.w3.org/1999/xlink" version="1.1" x="0" y="0" viewBox="4.9994934468737355 11.574786685882255 90.00060243389748 76.85043699506143" enable-background="new 0 0 100 100" xml:space="preserve" height="173.18472659895195" width="202.8190123012201" class="icon-icon-0" data-fill-palette-color="accent" id="icon-0"><g fill="#755bb4" data-fill-palette-color="accent"><path fill="#755bb4" d="M94.164 29.039c-6.042 1.936-9.062 3.312-16.509 5.535-1.108 0.33-2.386 1.596-2.82 2.808-2.92 8.149-4.424 11.27-8.396 22.047-0.592 1.604-0.387 2.75 0.533 2.371 6.184-2.548 10.215-5.27 16.792-8.091 0.979-0.42 2.345-2.211 2.974-3.751 4.227-10.346 4.087-8.847 7.934-18.569C95.244 29.942 95.064 28.751 94.164 29.039zM82.999 43.293c-0.504 1.122-1.773 2.435-2.826 2.882-1.052 0.447-1.466-0.209-0.936-1.41 0.531-1.202 1.797-2.457 2.822-2.826C83.085 41.568 83.504 42.17 82.999 43.293z" data-fill-palette-color="accent"></path><path fill="#755bb4" d="M52.86 17.004c8.093 6.658 12.36 9.313 19.977 15.319 1.134 0.895 3.555 1.16 5.153 0.653 10.738-3.4 10.689-3.82 16.224-5.41 0.824-0.236 0.436-1.197-0.852-2.082-8.647-5.938-10.694-7.598-18.335-12.794-1.137-0.773-3.104-1.261-4.216-1.076-7.479 1.236-8.848 1.276-17.639 3.055C51.864 14.934 51.655 16.013 52.86 17.004zM83.483 22.653c0.83-0.261 2.509 0.185 3.763 1.032 1.254 0.849 1.653 1.784 0.862 2.048s-2.514-0.235-3.808-1.087C83.006 23.796 82.651 22.913 83.483 22.653zM79.174 24.074c0.888-0.301 2.584 0.146 3.891 1.003 1.306 0.855 1.76 1.808 0.886 2.122-0.873 0.315-2.759-0.128-4.079-0.998C78.551 25.332 78.288 24.374 79.174 24.074zM78.569 29.09c-1.267 0.431-3.512 0.085-4.795-0.822s-1.165-2.007 0.065-2.409c1.232-0.403 3.145 0.011 4.462 0.889C79.619 27.626 79.836 28.659 78.569 29.09zM71.112 14.403c1.027-0.193 2.898 0.307 4.072 1.101 1.175 0.793 1.277 1.607 0.317 1.829-0.961 0.223-2.701-0.248-3.943-1.072C70.316 15.438 70.084 14.596 71.112 14.403zM65.958 15.396c1.009-0.2 2.858 0.346 4.125 1.184s1.526 1.685 0.559 1.926c-0.966 0.242-2.849-0.238-4.157-1.118C65.177 16.507 64.95 15.596 65.958 15.396zM60.322 16.57c1.218-0.266 3.191 0.299 4.507 1.198 1.317 0.899 1.501 1.837 0.276 2.158-1.224 0.319-3.407-0.137-4.719-1.091C59.076 17.882 59.105 16.836 60.322 16.57z" data-fill-palette-color="accent"></path><path fill="#755bb4" d="M57.965 38.688c-0.37-1.613-1.899-2.085-3.281-1.189-9.287 6.012-10.237 7.304-20.638 13.92-1.549 0.985-2.567 3.248-2.062 4.942 3.392 11.4 5.324 16.63 8.808 29.233 0.519 1.878 2.667 2.031 4.521 0.497 12.455-10.309 13.442-11.675 18.545-16.116 0.76-0.661 1.144-2.278 0.797-3.723C62.325 56.558 60.454 49.537 57.965 38.688zM42.104 59.327c-1.449 1.023-3.271 0.549-3.868-1.169s0.214-3.971 1.625-4.943c1.412-0.974 2.942-0.354 3.576 1.312C44.07 56.194 43.554 58.302 42.104 59.327zM48.594 77.162c-1.549 1.226-3.493 0.872-4.097-0.936-0.603-1.808 0.323-4.288 1.841-5.417 1.52-1.131 3.104-0.551 3.738 1.16C50.711 73.682 50.146 75.936 48.594 77.162zM51.987 63.262c-1.114 0.825-2.633 0.191-3.286-1.49-0.654-1.685-0.196-3.759 0.936-4.583 1.13-0.823 2.515-0.094 3.151 1.59C53.424 60.46 53.1 62.438 51.987 63.262zM54.354 50.532c-1.127 0.787-2.503 0.049-3.102-1.622s-0.144-3.663 1.065-4.499c1.208-0.835 2.671-0.179 3.188 1.542C56.021 47.673 55.479 49.745 54.354 50.532zM60.222 67.831c-0.89 0.702-2.102 0.019-2.692-1.614s-0.285-3.575 0.691-4.281c0.975-0.706 2.207 0.1 2.71 1.736C61.435 65.309 61.11 67.13 60.222 67.831z" data-fill-palette-color="accent"></path><path fill="#755bb4" d="M6.628 48.735c7.846 1.066 10.187 1.539 19.906 2.905 1.446 0.203 3.961-0.416 5.428-1.338 9.859-6.188 13.689-8.025 21.955-14.055 1.23-0.896 0.789-1.708-0.741-1.759-10.285-0.345-10.064-0.502-20.163-1.077-1.502-0.085-3.986 0.508-5.223 1.262-8.309 5.062-10.343 5.808-20.471 12.008C5.812 47.604 5.46 48.576 6.628 48.735zM40.918 38.174c1.288-0.817 3.315-1.449 4.655-1.368 1.339 0.081 1.526 0.87 0.24 1.726-1.285 0.854-3.554 1.425-4.897 1.307S39.631 38.991 40.918 38.174zM28.245 41.496c1.322-0.742 3.292-1.228 4.431-1.098s1.042 0.854-0.281 1.625c-1.321 0.771-3.38 1.278-4.519 1.119C26.736 42.984 26.925 42.236 28.245 41.496zM15.044 44.644c1.456-0.834 3.59-1.318 4.787-1.151 1.198 0.166 0.993 0.931-0.488 1.773s-3.687 1.447-4.862 1.273C13.308 46.365 13.588 45.479 15.044 44.644z" data-fill-palette-color="accent"></path><path fill="#755bb4" d="M71.563 33.21c-7.945-5.849-10.553-8.545-19.583-14.896-1.344-0.945-2.896-0.183-3.304 1.436-1.696 6.725-2.249 8.919-3.207 12.182 1.906 0.101 4.198 0.197 7.781 0.317 2.57 0.087 3.301 1.572 3.497 2.207 0.029 0.095 0.062 0.247 0.086 0.426 1.624 0.299 2.912 1.551 3.314 3.306 1.529 6.667 2.798 11.773 4.141 17.181 0.277 1.118 0.558 2.246 0.839 3.386 0.05-0.108 0.104-0.213 0.141-0.332 3.361-10.9 3.835-10.296 7.453-20.633C73.26 36.251 72.746 34.08 71.563 33.21zM63.781 40.616c-1.228 0.084-2.644-1.039-3.137-2.473-0.494-1.434 0.112-2.713 1.341-2.919 1.229-0.207 2.598 0.859 3.093 2.415C65.571 39.196 65.009 40.532 63.781 40.616z" data-fill-palette-color="accent"></path><path fill="#755bb4" d="M30.338 57.876c-0.6-2.057-2.577-4.145-4.096-4.36-10.205-1.446-9.529-1.479-19.309-2.907-1.455-0.212-2.335 1.133-1.751 2.89 3.919 11.814 5.118 14.764 8.455 25.114 0.497 1.541 2.084 3.175 3.428 3.551 9.028 2.528 11.395 3.695 20.31 6.2 1.327 0.373 2.032-1.005 1.51-2.864C35.382 73.009 34.368 71.705 30.338 57.876zM14.398 62.693c-1.26-0.27-2.822-1.789-3.367-3.482-0.545-1.695 0.141-2.968 1.389-2.731 1.25 0.236 2.629 1.936 3.184 3.664C16.157 61.87 15.659 62.965 14.398 62.693zM19.47 78.604c-1.289-0.341-2.812-1.939-3.298-3.486-0.485-1.547 0.252-2.504 1.529-2.2 1.277 0.303 2.636 1.771 3.132 3.354C21.33 77.854 20.759 78.944 19.47 78.604zM26.291 65.355c-1.284-0.271-2.689-1.818-3.296-3.613-0.605-1.797-0.203-3.222 1.08-2.984 1.285 0.237 2.998 2.09 3.604 3.92C28.283 64.506 27.576 65.627 26.291 65.355zM32.029 82.057c-1.285-0.339-2.731-2.054-3.281-3.71-0.551-1.655-0.021-2.684 1.261-2.382 1.284 0.302 2.854 1.841 3.405 3.531C33.966 81.187 33.313 82.395 32.029 82.057z" data-fill-palette-color="accent"></path></g></svg></g></svg></g></svg></g><defs></defs></svg><rect width="395.52" height="108.8432869989454" fill="none" stroke="none" visibility="hidden"></rect></g></svg></g></svg>